<svg xmlns="http://www.w3.org/2000/svg" viewBox="0 0 132 88" width="100%" role="img" aria-label="矩阵量表示意">
  <rect x="0" y="0" width="132" height="88" rx="0" fill="#ffffff"/>
  <text x="7" y="15" font-family="system-ui, 'Segoe UI', 'Microsoft YaHei', sans-serif" font-size="7" fill="#ff5599">*</text>
  <text x="13" y="15" font-family="system-ui, 'Segoe UI', 'Microsoft YaHei', sans-serif" font-size="8.5" font-weight="700" fill="#444466">1.&nbsp;矩阵量表</text>
  <rect x="84.4" y="5" width="39.6" height="13" rx="6.5" fill="#e4fcf8"/>
  <text x="104.2" y="14.6" font-family="system-ui, 'Segoe UI', 'Microsoft YaHei', sans-serif" font-size="7.2" font-weight="600"
        fill="#2fa596" text-anchor="middle">矩阵量表</text>
<rect x="14" y="33" width="32" height="6" rx="3" fill="#e3e7f0"/><rect x="54" y="29.5" width="11" height="13" rx="4" fill="#ffffff"
                stroke="#e6e9f2" stroke-width="1"/><rect x="68" y="29.5" width="11" height="13" rx="4" fill="#ffffff"
                stroke="#e6e9f2" stroke-width="1"/><rect x="82" y="29.5" width="11" height="13" rx="4" fill="#ffffff"
                stroke="#e6e9f2" stroke-width="1"/><rect x="96" y="29.5" width="11" height="13" rx="4" fill="#ffffff"
                stroke="#e6e9f2" stroke-width="1"/><rect x="110" y="29.5" width="11" height="13" rx="4" fill="#ffffff"
                stroke="#e6e9f2" stroke-width="1"/><rect x="14" y="50" width="32" height="6" rx="3" fill="#e3e7f0"/><rect x="54" y="46.5" width="11" height="13" rx="4" fill="#ffffff"
                stroke="#e6e9f2" stroke-width="1"/><rect x="68" y="46.5" width="11" height="13" rx="4" fill="#ffffff"
                stroke="#e6e9f2" stroke-width="1"/><rect x="82" y="46.5" width="11" height="13" rx="4" fill="#ffffff"
                stroke="#e6e9f2" stroke-width="1"/><rect x="96" y="46.5" width="11" height="13" rx="4" fill="#77eedd"
                stroke="#5fd8c6" stroke-width="1"/><rect x="110" y="46.5" width="11" height="13" rx="4" fill="#ffffff"
                stroke="#e6e9f2" stroke-width="1"/><rect x="14" y="67" width="32" height="6" rx="3" fill="#e3e7f0"/><rect x="54" y="63.5" width="11" height="13" rx="4" fill="#ffffff"
                stroke="#e6e9f2" stroke-width="1"/><rect x="68" y="63.5" width="11" height="13" rx="4" fill="#ffffff"
                stroke="#e6e9f2" stroke-width="1"/><rect x="82" y="63.5" width="11" height="13" rx="4" fill="#ffffff"
                stroke="#e6e9f2" stroke-width="1"/><rect x="96" y="63.5" width="11" height="13" rx="4" fill="#ffffff"
                stroke="#e6e9f2" stroke-width="1"/><rect x="110" y="63.5" width="11" height="13" rx="4" fill="#ffffff"
                stroke="#e6e9f2" stroke-width="1"/>
</svg>
